<svg width="265" height="354" viewBox="0 0 265 354" fill="none" xmlns="http://www.w3.org/2000/svg">
<path d="M161.813 207.256C164.336 212.723 156.907 217.595 152.876 219.347L147.093 217.77L146.042 240.375L168.647 238.798C172.152 234.768 179.477 224.184 180.738 214.09C182.315 201.473 164.967 191.485 161.813 184.125C158.659 176.766 175.481 164.674 184.944 169.931C192.514 174.137 184.944 182.198 180.213 185.702C181.264 185.527 183.472 185.492 183.892 186.754C184.313 188.016 179.512 190.784 177.058 192.011L183.367 193.588L179.161 195.691C179.687 196.742 183.472 198.53 194.406 197.268C205.341 196.006 212.28 180.971 215.96 173.611C217.537 175.714 218.063 176.24 220.166 178.868C220.166 155.738 195.283 146.625 183.367 146.275C184.418 145.224 186.521 144.698 190.201 141.018C181.79 139.441 164.442 145.749 152.876 163.623C141.311 181.497 158.659 200.422 161.813 207.256Z" fill="#A100FF" stroke="#20120F" stroke-width="2.1028"/>
<path d="M180.213 168.647C185.995 168.822 198.402 171.929 193.355 182.023" stroke="#20120F" stroke-width="2.1028"/>
<path d="M175.481 215.142C175.481 215.667 172.327 231.964 167.596 236.17" stroke="#20120F" stroke-width="2.1028"/>
<path d="M28.3139 137.631L46.6846 119.231L55.1247 126.591L152.876 136.579L151.328 166.544C151.503 175.481 152.274 193.67 153.956 194.932C155.639 196.194 156.585 221.918 156.585 233.308C170.779 229.628 182.344 234.885 178.139 252.233C177.08 256.599 162.368 271.684 161.842 272.736C161.316 273.787 172.356 282.198 171.83 283.775C171.305 285.353 167.099 284.827 164.996 283.775C163.945 285.353 156.585 285.878 155.533 284.827C154.482 286.404 149.225 284.301 147.122 283.775C145.019 283.25 146.071 276.941 147.122 275.364C147.963 274.103 151.299 259.068 150.773 257.49L145.225 275.52C142.391 274.313 139.237 274.839 137.134 276.416C131.476 280.659 123.991 284.301 98.7578 284.827C95.3941 284.897 77.3793 286.229 68.7929 286.93L68.1773 286.98C59.8727 287.659 49.6509 288.494 40.9307 287.981C33.7443 287.558 27.7882 280.271 25.6854 275.89C25.1308 279.044 29.3653 283.355 29.3653 285.878C29.3653 289.032 25.1597 297.444 24.1083 297.969C23.0569 298.495 20.4284 298.495 17.7999 296.392C15.6971 297.444 9.73915 296.568 7.81158 295.341C5.88402 295.341 1.60835 295.025 2.02891 293.764C2.55461 292.187 21.4798 284.827 19.377 282.724C12.5429 275.89 -2.70241 242.771 3.606 236.988C8.65273 232.362 15.1425 241.194 19.377 244.348L12.5429 228.577L18.8513 229.628L14.12 217.537C16.1939 218.589 20.4284 222.584 16.2228 215.434C12.0172 208.285 12.7181 191.077 13.5943 183.367C11.141 185.469 11.4626 184.418 5.70876 185.995C5.2882 183.051 15.3466 167.946 20.4284 160.761L15.1714 161.813L34.0966 136.579L28.3139 137.631Z" fill="#DEA774" stroke="#20120F" stroke-width="2.1028"/>
<path d="M173.378 33.5422C168.332 36.4861 153.051 42.4791 146.042 45.1076C155.329 55.9721 173.694 76.3342 172.853 70.8669C171.801 64.0328 184.418 49.3132 190.727 44.0562C195.773 39.8506 195.633 25.131 194.932 18.2969C189.85 22.152 178.425 30.5983 173.378 33.5422Z" fill="#DFA774" stroke="#20120F" stroke-width="2.1028"/>
<path d="M181.79 41.9529C191.042 37.7472 194.056 25.4809 194.406 19.8734C194.406 19.348 194.932 18.822 194.932 18.822C195.984 27.7589 195.458 39.3244 191.778 43.0043C189.097 45.6848 183.367 50.3641 178.11 57.7239C175.054 62.0017 172.677 67.8874 172.327 70.3407L161.813 56.1468C164.617 53.1678 172.537 46.1585 181.79 41.9529Z" fill="#F38D7C" stroke="#20120F" stroke-width="2.1028"/>
<path d="M40.9022 2C22.8181 28.0748 32.3158 54.5701 39.3251 64.5584L44.5821 71.9182L84.5353 45.6332C77.526 20.2243 56.1472 19.3481 40.9022 2Z" fill="#DEA774" stroke="#20120F" stroke-width="2.1028"/>
<path d="M51.9416 16.7196C61.9528 25.8619 65.4346 37.2219 70.3412 46.1588C60.3528 56.1472 60.3528 56.1472 45.1075 67.1869C38.3785 60.8785 39.1496 47.035 40.3762 40.9018L35.6449 37.2219H43.5304L37.7477 27.2336C39.3248 27.7593 43.0047 30.1781 43.0047 28.8107C43.0047 25.6565 42.3038 16.0952 43.0047 9.8855C44.7571 11.2874 48.6973 13.7569 51.9416 16.7196Z" fill="#F38D7C" stroke="#20120F" stroke-width="2.1028"/>
<path d="M72.9696 140.259L84.0094 146.568L135.528 145.516C138.051 144.675 149.897 140.259 155.505 138.156L162.864 138.682L160.762 133.951L179.687 118.18H174.956L180.738 112.923L176.007 110.82L184.944 105.563L180.738 97.6775L185.995 98.7289L182.315 87.1635L187.047 87.6892L179.687 77.7009L183.367 76.1238C180.738 75.7733 178.635 72.4439 173.904 69.2897C172.643 64.6635 166.019 59.3014 162.864 57.1986L167.07 54.0444L150.773 49.8388L152.876 47.2103L139.208 41.9533C142.012 41.778 147.199 41.2173 145.516 40.3762C143.834 39.535 135.353 37.9229 131.322 37.222L134.477 31.9649L120.808 35.1192L122.911 27.7593L109.769 35.1192V27.2336L103.46 35.1192L99.2547 28.8107L97.6776 34.5935L91.8949 28.285L90.8435 35.1192L85.0608 29.8621L83.4837 38.7991L77.701 34.5935L75.5982 41.9533L66.6612 35.1192L68.764 46.1589L57.7243 49.8388C60.7033 51.5911 65.6098 54.8855 61.4042 54.0444C57.1986 53.2033 47.736 55.4463 43.5303 56.6729L51.4159 60.3528L41.4276 63.507C44.5818 64.9089 49.4182 67.292 43.5303 65.6098C36.1705 63.507 27.2336 75.0724 28.285 74.021C29.1262 73.1799 33.1916 73.3201 35.1191 73.4953L29.3364 80.6313C31.9649 80.005 36.5911 79.0678 34.0677 80.3295C31.5444 81.5911 29.8621 92.0701 29.3364 97.1519C31.264 95.75 34.6986 93.472 33.0164 95.5748C31.3341 97.6776 34.7687 108.016 36.6963 112.923L37.222 110.82L45.6332 123.963L47.736 121.334L58.25 138.682L58.25 131.848L74.021 143.414L72.9696 140.259Z" fill="#DFA774"/>
<path d="M120.283 101.883C116.918 101.883 112.923 102.409 111.872 103.986C110.82 105.563 117.634 110.82 119.757 110.82C121.881 110.82 129.22 106.614 128.168 104.512C127.266 102.706 123.647 101.883 120.283 101.883Z" fill="#A100FF" stroke="#20120F" stroke-width="1.0514"/>
<path d="M84.0094 146.568L72.9696 140.259L74.021 143.414L58.25 131.848L58.25 138.682L47.736 121.334L45.6332 123.963L37.222 110.82L36.6963 112.923C34.7687 108.016 31.3341 97.6776 33.0164 95.5748C34.6986 93.472 31.264 95.75 29.3364 97.1519C29.8621 92.0701 31.5444 81.5911 34.0677 80.3295C36.5911 79.0678 31.9649 80.005 29.3364 80.6313L35.1191 73.4953C33.1916 73.3201 29.1262 73.1799 28.285 74.021C27.2336 75.0724 36.1705 63.507 43.5304 65.6098C49.4182 67.292 44.5818 64.9089 41.4276 63.507L51.4159 60.3528L43.5304 56.6729C47.736 55.4463 57.1986 53.2033 61.4042 54.0444C65.6098 54.8855 60.7033 51.5911 57.7243 49.8388L68.764 46.1589L66.6612 35.1192L75.5982 41.9533L77.701 34.5935L83.4837 38.7991L85.0608 29.8621L90.8435 35.1192L91.8949 28.285L97.6776 34.5935L99.2547 28.8107L103.46 35.1192L109.769 27.2336V35.1192L122.911 27.7593L120.808 35.1192L134.477 31.9649L131.322 37.222C135.353 37.9229 145.516 40.3762 145.516 40.3762C145.516 40.3762 142.362 41.4276 139.208 41.9533L152.876 47.2103L150.773 49.8388L167.07 54.0444L162.864 57.1986C166.019 59.3014 172.643 64.6635 173.904 69.2897C178.635 72.4439 180.738 75.7733 183.367 76.1238L179.687 77.7009L187.047 87.6892L182.315 87.1635L185.995 98.7289L180.738 97.6775L184.944 105.563L176.007 110.82L180.738 112.923L174.956 118.18H179.687L160.762 133.951L162.864 138.682L155.505 138.156C149.897 140.259 138.051 144.675 135.528 145.516" stroke="#20120F" stroke-width="2.1028"/>
<path d="M87.0306 70.3411C90.8156 72.8645 106.481 79.4532 113.841 82.4322C120.215 85.0607 118.573 96.6261 114.367 98.2032C111.003 99.4649 101.049 109.944 96.4932 115.026C85.4535 123.963 75.9909 123.963 59.1684 119.757C38.1404 114.5 38.1404 86.6378 49.7058 75.5981C61.2712 64.5584 82.2993 67.1869 87.0306 70.3411Z" fill="#A100FF"/>
<path d="M119.757 113.448L99.2547 121.334" stroke="#20120F" stroke-width="2.1028"/>
<path d="M119.698 113.449L139.045 123.85" stroke="#20120F" stroke-width="2.1028"/>
<path d="M119.757 110.294V113.974" stroke="#20120F" stroke-width="2.1028"/>
<path d="M85.5865 110.295C67.9229 110.295 65.9603 95.5749 67.187 88.2151L105.563 90.8436C106.264 97.3272 103.25 110.295 85.5865 110.295Z" fill="white"/>
<path d="M75.5982 89.2664L100.306 90.8435C99.9555 95.3995 96.8066 105.563 86.7132 105.563C80.0325 105.563 77.1288 101.111 76.0814 96.6262H79.2612C80.7129 96.6262 81.8897 95.4493 81.8897 93.9977C81.8897 92.546 80.7129 91.3692 79.2612 91.3692H75.5981C75.6135 91 75.564 89.5967 75.5982 89.2664Z" fill="#010101"/>
<path d="M55.0958 87.6892C72.7944 88.9158 108.717 91.3691 110.82 91.3691" stroke="#20120F" stroke-width="2.1028"/>
<path d="M67.187 88.2151C65.9603 95.5749 67.9229 110.295 85.5865 110.295C103.25 110.295 106.264 97.3272 105.563 90.8436" stroke="#20120F" stroke-width="1.0514"/>
<path d="M148.059 112.808C165.664 114.253 168.824 99.7432 168.203 92.3077L129.74 91.7888C128.512 98.1934 130.455 111.364 148.059 112.808Z" fill="white"/>
<path d="M159.734 92.6674L134.98 92.2186C134.957 96.788 137.264 107.175 147.324 108.001C153.982 108.547 157.24 104.347 158.651 99.9631L155.481 99.703C154.035 99.5843 152.958 98.3152 153.077 96.8684C153.195 95.4215 154.465 94.3449 155.911 94.4636L159.562 94.7632C159.577 94.394 159.741 92.9995 159.734 92.6674Z" fill="#010101"/>
<path d="M180.297 92.7725C162.557 92.5475 126.554 92.0546 124.458 91.8827" stroke="#20120F" stroke-width="2.1028"/>
<path d="M168.203 92.3077C168.824 99.7432 165.664 114.253 148.059 112.808C130.455 111.364 128.512 98.1934 129.74 91.7888" stroke="#20120F" stroke-width="1.0514"/>
<path d="M52.9613 234.377C38.6622 265.499 54.9206 281.848 64.5584 286.404C87.6893 283.25 122.385 285.353 132.9 277.993C134.908 271.967 123.931 240.16 122.354 236.48C120.777 232.8 108.16 185.487 91.3374 184.962C74.515 184.436 70.8351 195.476 52.9613 234.377Z" fill="#FEE6CF"/>
<path d="M138.818 218.063L141.973 203.343L115.162 195.458L104.648 237.514V275.89L97.8138 290.084C97.6386 290.61 97.8138 291.871 99.9166 292.712C102.019 293.553 102.545 290.259 102.545 288.507C103.246 290.084 105.174 293.238 107.276 293.238C109.379 293.238 111.307 291.135 112.008 290.084C113.76 290.96 117.37 292.397 117.79 291.135C118.211 289.874 114.111 281.848 112.008 277.993C112.709 271.159 115.688 256.439 121.996 252.233C128.304 248.028 129.531 234.009 129.356 227.526L131.984 229.628V221.217L135.664 223.846L136.716 214.383L138.818 218.063Z" fill="#DFA774"/>
<path d="M26.5702 206.286L20.4394 188.314L45.2829 174.093L64.2818 225.2L72.1497 273.38L81.8045 290.099C82.0852 290.731 82.1709 292.343 80.268 293.738C78.3652 295.133 77.1709 291.081 76.8117 288.881C76.4432 290.974 75.1875 295.245 73.1122 295.584C71.0369 295.923 68.7034 293.594 67.7961 292.387C66.2463 293.769 62.9783 296.155 62.3045 294.638C61.6308 293.122 64.0322 282.385 65.3172 277.206C63.2243 268.739 57.2665 250.739 50.1783 246.476C43.0901 242.212 39.0054 224.81 37.8491 216.641L35.6861 219.705L33.9616 209.145L30.8687 213.038L27.891 201.327L26.5702 206.286Z" fill="#DFA774"/>
<path d="M20.439 188.314L26.5698 206.286L27.8907 201.327L30.8683 213.038L33.9612 209.145L35.6857 219.705L37.8487 216.641C39.0051 224.81 43.0898 242.212 50.1779 246.476C57.2661 250.739 63.2239 268.739 65.3168 277.206C64.0319 282.385 61.6305 293.122 62.3042 294.639C62.9779 296.155 66.4615 295.089 68.0113 293.707C68.9186 294.914 71.0366 295.923 73.1119 295.584C75.1872 295.245 75.5982 294.5 76.8314 292.266C78.1924 294.077 78.8837 295.048 80.7865 293.653C82.6894 292.258 82.0848 290.731 81.8041 290.099L72.1493 273.38L64.2815 225.2" stroke="black" stroke-width="2.1028"/>
<path d="M141.973 203.344L138.818 218.063L136.716 214.383L135.664 223.846L131.984 221.217V229.629L129.356 227.526C129.531 234.009 128.304 248.028 121.996 252.234C115.688 256.439 112.709 271.159 112.008 277.993C114.111 281.848 118.211 289.874 117.79 291.136C117.37 292.397 113.76 292.012 112.008 291.136C111.307 292.187 109.379 293.238 107.276 293.238C105.174 293.238 104.648 292.713 103.071 291.136C102.019 292.713 101.494 293.554 99.3909 292.713C97.2881 291.872 97.6386 290.61 97.8138 290.084L104.648 275.89V237.514" stroke="black" stroke-width="2.1028"/>
<path d="M246.706 231.224L231.728 236.261L241.194 242.771L229.628 245.399L239.617 252.234L231.728 255.388L240.142 262.222L229.628 264.85L244.348 279.57L232.783 284.301L236.488 295.373L228.638 293.065L235.744 305.251L227.26 298.783C227.344 301.524 227.45 306.916 227.195 306.554C226.94 306.192 222.506 304.765 220.322 304.096L221.515 311.926L217.01 308.607L215.347 317.373L206.614 314.197L205.568 325.373L197.912 317.777L197.019 326.676L191.653 320.984L186.793 331.74L177.241 323.181L178.11 333.717L170.737 326.425L164.714 336.106L155.012 326.569L149.896 332.356L144.465 321.626L136.692 329.361L131.848 319.523L120.808 325.373L119.231 312.689L109.278 316.764L109.517 305.211L100.967 306.514L106.481 298.413L92.7515 295.248L102.832 285.95L87.3721 284.551L95.2334 277.093L84.2283 273.763L93.0835 267.907L86.3428 264.678L94.5771 259.667L87.0831 258.055L94.2657 252.704L82.0019 249.316L92.9978 244.385L88.7406 235.937L100.306 235.937L93.0835 225.423L107.14 225.423L104.512 213.857L115.551 215.96L111.871 207.549L121.86 208.6L118.706 201.766L130.797 204.92L127.117 196.482L138.663 199.62L134.203 190.034L151.013 193.731L150.366 184.566L164.179 196.482L159.234 183.716L173.892 196.253L175.525 180.732L182.529 200.445L199.192 185.137L201.019 197.126L210.478 188.674L208.17 203.047L216.984 200.201C215.102 203.159 211.436 209.059 211.826 208.999L225.505 206.914L216.046 215.366L233.178 216.26L224.961 223.021L235.763 223.377L228.601 227.223L246.706 231.224Z" fill="#A100FF" stroke="black" stroke-width="2.1028"/>
<path d="M159.179 262.719C159.179 266.007 158.437 268.543 156.955 270.327C155.483 272.111 153.404 273.002 150.718 273.002C148.009 273.002 145.913 272.105 144.43 270.31C142.948 268.515 142.206 265.985 142.206 262.719V258.271C142.206 254.982 142.942 252.446 144.414 250.662C145.896 248.879 147.986 247.987 150.684 247.987C153.382 247.987 155.472 248.884 156.955 250.679C158.437 252.474 159.179 255.01 159.179 258.287V262.719ZM153.544 257.552C153.544 255.802 153.315 254.497 152.858 253.639C152.401 252.769 151.676 252.335 150.684 252.335C149.714 252.335 149.006 252.736 148.561 253.539C148.126 254.341 147.892 255.556 147.858 257.184V263.404C147.858 265.221 148.087 266.553 148.544 267.401C149.001 268.237 149.725 268.655 150.718 268.655C151.676 268.655 152.384 268.248 152.841 267.434C153.298 266.609 153.532 265.322 153.544 263.571V257.552Z" fill="#D284FF"/>
<path d="M185.464 262.719C185.464 266.007 184.722 268.543 183.24 270.327C181.768 272.111 179.689 273.002 177.003 273.002C174.294 273.002 172.198 272.105 170.715 270.31C169.233 268.515 168.491 265.985 168.491 262.719V258.271C168.491 254.982 169.227 252.446 170.699 250.662C172.181 248.879 174.271 247.987 176.969 247.987C179.667 247.987 181.757 248.884 183.24 250.679C184.722 252.474 185.464 255.01 185.464 258.287V262.719ZM179.829 257.552C179.829 255.802 179.6 254.497 179.143 253.639C178.686 252.769 177.961 252.335 176.969 252.335C175.999 252.335 175.291 252.736 174.846 253.539C174.411 254.341 174.177 255.556 174.143 257.184V263.404C174.143 265.221 174.372 266.553 174.829 267.401C175.286 268.237 176.011 268.655 177.003 268.655C177.961 268.655 178.669 268.248 179.126 267.434C179.583 266.609 179.817 265.322 179.829 263.571V257.552Z" fill="#D284FF"/>
<path d="M45.8838 304.612C56.7647 298.33 74.406 298.33 85.2868 304.612L109.077 318.346C119.958 324.627 119.958 334.812 109.077 341.093L89.3758 352.467L85.6586 350.321L105.732 338.733L102.015 336.587L81.9413 348.175L78.224 346.029L98.2973 334.441L94.58 332.295L74.5068 343.883L70.7895 341.737L90.8627 330.149L87.1455 328.003L67.0722 339.591L63.355 337.445L83.4282 325.857L79.7109 323.711L59.6377 335.299L55.9204 333.153L75.9937 321.565L72.2764 319.419L52.2032 331.007L48.4859 328.861L68.5591 317.273L64.8419 315.127L44.7686 326.715L41.0514 324.569L61.1246 312.981L57.4073 310.835L37.3341 322.423L33.6168 320.277L53.6901 308.689L49.9728 306.543L29.8996 318.131L26.1823 315.985L45.8838 304.612Z" fill="white" stroke="black" stroke-width="2.1028"/>
<path d="M182.741 315.578C183.289 315.499 183.673 315.019 183.892 314.138L184.186 312.834C184.389 311.933 184.905 311.384 185.732 311.187C185.069 310.654 184.839 309.937 185.042 309.036L185.336 307.732C185.516 306.842 185.375 306.244 184.913 305.938L185.53 304.965C186.202 305.327 186.667 305.777 186.925 306.315C187.183 306.849 187.231 307.485 187.069 308.224L186.797 309.431C186.614 310.245 186.847 310.725 187.496 310.871L187.188 312.235C186.539 312.089 186.124 312.418 185.942 313.224L185.654 314.504C185.308 315.908 184.383 316.649 182.879 316.727L182.741 315.578ZM190.035 308.961C190.356 309.034 190.601 309.19 190.77 309.43C190.939 309.666 190.991 309.933 190.924 310.229C190.857 310.526 190.696 310.746 190.44 310.89C190.186 311.031 189.898 311.065 189.577 310.993C189.253 310.92 189.006 310.763 188.837 310.523C188.672 310.284 188.623 310.018 188.688 309.725C188.754 309.433 188.913 309.214 189.165 309.068C189.421 308.924 189.711 308.888 190.035 308.961ZM187.644 318.002L186.731 317.291L187.027 316.929C187.425 316.471 187.683 316.007 187.802 315.537L188.14 314.035L189.763 314.401L189.463 315.703C189.355 316.163 189.131 316.605 188.791 317.03C188.452 317.454 188.069 317.778 187.644 318.002Z" fill="#D284FF"/>
<path d="M211.825 256.684C212.374 256.605 212.757 256.126 212.977 255.245L213.271 253.941C213.474 253.039 213.989 252.49 214.817 252.293C214.154 251.761 213.924 251.044 214.127 250.142L214.421 248.838C214.6 247.948 214.459 247.35 213.998 247.044L214.615 246.072C215.287 246.434 215.752 246.884 216.009 247.422C216.268 247.956 216.316 248.592 216.154 249.33L215.882 250.538C215.699 251.351 215.931 251.831 216.58 251.977L216.273 253.342C215.624 253.195 215.209 253.525 215.027 254.33L214.739 255.61C214.393 257.014 213.468 257.755 211.964 257.833L211.825 256.684ZM219.12 250.068C219.441 250.14 219.685 250.296 219.854 250.537C220.024 250.773 220.076 251.039 220.009 251.335C219.942 251.632 219.781 251.852 219.525 251.997C219.27 252.137 218.983 252.171 218.662 252.099C218.338 252.026 218.091 251.869 217.922 251.629C217.757 251.39 217.707 251.124 217.773 250.832C217.839 250.539 217.998 250.32 218.25 250.175C218.505 250.03 218.796 249.995 219.12 250.068ZM216.729 259.109L215.815 258.398L216.112 258.035C216.51 257.578 216.768 257.114 216.887 256.644L217.225 255.141L218.848 255.507L218.548 256.81C218.44 257.27 218.216 257.712 217.876 258.136C217.537 258.561 217.154 258.885 216.729 259.109Z" fill="#D284FF"/>
<path d="M134.625 222.494L132.593 222.036L134.059 215.533L136.09 215.991L134.625 222.494ZM134.317 213.829C134.382 213.541 134.539 213.328 134.789 213.191C135.039 213.053 135.33 213.022 135.663 213.097C135.995 213.172 136.245 213.325 136.412 213.556C136.578 213.788 136.629 214.047 136.564 214.336C136.499 214.624 136.342 214.837 136.092 214.975C135.842 215.112 135.551 215.143 135.218 215.068C134.886 214.993 134.636 214.84 134.469 214.609C134.303 214.378 134.252 214.118 134.317 213.829ZM136.326 222.877L137.474 217.781L136.531 217.568L136.848 216.162L137.791 216.374L137.908 215.857C138.075 215.116 138.423 214.591 138.951 214.28C139.48 213.97 140.139 213.904 140.929 214.082C141.217 214.147 141.524 214.26 141.85 214.422L141.52 215.914C141.404 215.85 141.241 215.794 141.033 215.747C140.42 215.609 140.054 215.804 139.935 216.333L139.822 216.832L141.09 217.118L140.774 218.524L139.505 218.238L138.357 223.335L136.326 222.877Z" fill="#D284FF"/>
<path d="M191.815 243.141L192.963 238.045L192.02 237.832L192.337 236.426L193.28 236.638L193.397 236.121C193.564 235.38 193.912 234.854 194.44 234.544C194.969 234.234 195.628 234.168 196.418 234.346C196.706 234.411 197.013 234.524 197.339 234.686L197.009 236.178C196.893 236.114 196.73 236.058 196.522 236.011C195.909 235.873 195.543 236.068 195.424 236.597L195.311 237.096L196.579 237.382L196.263 238.788L194.994 238.502L193.846 243.599L191.815 243.141ZM196.317 240.676C196.463 240.027 196.72 239.478 197.086 239.03C197.453 238.579 197.903 238.27 198.438 238.104C198.972 237.938 199.557 237.927 200.194 238.07C201.168 238.29 201.867 238.765 202.292 239.497C202.717 240.224 202.813 241.106 202.579 242.144L202.563 242.216C202.334 243.23 201.87 243.972 201.171 244.441C200.476 244.908 199.648 245.033 198.687 244.816C197.761 244.607 197.08 244.163 196.644 243.484C196.209 242.801 196.076 241.979 196.246 241.02L196.317 240.676ZM198.314 241.259C198.178 241.86 198.173 242.322 198.298 242.644C198.423 242.967 198.67 243.17 199.039 243.253C199.76 243.416 200.254 242.944 200.52 241.838L200.566 241.634C200.829 240.468 200.587 239.801 199.842 239.633C199.165 239.48 198.685 239.9 198.403 240.893L198.314 241.259ZM207.723 241.819L207.067 241.621C206.43 241.477 205.976 241.586 205.706 241.946L204.778 246.062L202.752 245.606L204.218 239.103L206.117 239.531L205.995 240.382C206.479 239.821 207.026 239.61 207.635 239.747C207.851 239.796 208.034 239.862 208.183 239.947L207.723 241.819Z" fill="#D284FF"/>
<path d="M125.501 305.191C124.053 305.701 122.899 305.344 122.04 304.12L121.34 303.122C120.863 302.443 120.353 302.294 119.808 302.677L119.005 301.532C119.549 301.15 119.582 300.617 119.103 299.935L118.36 298.876C117.945 298.264 117.758 297.665 117.799 297.079C117.843 296.492 118.102 295.906 118.576 295.323L119.516 295.987C119.206 296.446 119.303 297.053 119.808 297.807L120.576 298.902C121.104 299.655 121.166 300.404 120.761 301.15C121.6 301.023 122.285 301.337 122.816 302.094L123.58 303.183C124.118 303.914 124.656 304.212 125.193 304.076L125.501 305.191Z" fill="#D284FF"/>
<path d="M120.937 276.981C120.347 277.383 119.696 277.469 118.984 277.241C118.288 277.018 117.825 276.647 117.594 276.129C117.369 275.608 117.377 274.968 117.621 274.209L118.94 270.097L120.917 270.731L119.594 274.855C119.42 275.399 119.596 275.755 120.124 275.925C120.578 276.07 120.953 276.011 121.248 275.748L122.677 271.296L124.665 271.934L122.629 278.281L120.776 277.686L120.937 276.981ZM127.613 277.912C127.667 277.744 127.622 277.581 127.479 277.423C127.335 277.265 127.035 277.052 126.577 276.784C126.119 276.517 125.759 276.244 125.494 275.965C125.231 275.682 125.056 275.387 124.97 275.078C124.883 274.77 124.893 274.452 124.998 274.123C125.185 273.541 125.579 273.139 126.18 272.918C126.783 272.693 127.474 272.705 128.252 272.954C129.089 273.223 129.701 273.628 130.087 274.171C130.474 274.713 130.568 275.293 130.37 275.911L128.387 275.275C128.55 274.767 128.364 274.427 127.828 274.255C127.621 274.188 127.428 274.191 127.25 274.263C127.073 274.332 126.956 274.452 126.901 274.624C126.845 274.8 126.885 274.97 127.022 275.135C127.159 275.3 127.404 275.477 127.757 275.668C128.113 275.86 128.419 276.051 128.673 276.24C129.522 276.875 129.81 277.616 129.538 278.465C129.352 279.044 128.943 279.432 128.31 279.631C127.681 279.83 126.958 279.799 126.141 279.536C125.597 279.362 125.144 279.109 124.78 278.776C124.417 278.444 124.169 278.072 124.039 277.659C123.908 277.246 123.902 276.854 124.021 276.482L125.869 277.075C125.783 277.371 125.812 277.617 125.956 277.814C126.101 278.007 126.32 278.151 126.613 278.245C126.883 278.332 127.102 278.342 127.27 278.275C127.442 278.209 127.556 278.088 127.613 277.912ZM132.91 281.708C131.937 281.395 131.241 280.853 130.825 280.081C130.409 279.305 130.351 278.452 130.65 277.521L130.702 277.357C130.91 276.708 131.213 276.173 131.611 275.753C132.013 275.334 132.488 275.064 133.036 274.942C133.585 274.816 134.177 274.855 134.81 275.058C135.702 275.344 136.317 275.847 136.655 276.568C136.994 277.285 137.005 278.139 136.688 279.128L136.442 279.896L132.511 278.636C132.467 279.014 132.532 279.343 132.706 279.623C132.879 279.903 133.155 280.104 133.535 280.226C134.16 280.426 134.719 280.364 135.212 280.039L135.773 281.396C135.417 281.658 134.98 281.817 134.461 281.875C133.948 281.93 133.431 281.874 132.91 281.708ZM134.309 276.579C133.731 276.394 133.263 276.667 132.908 277.398L134.903 278.038L134.952 277.885C135.061 277.571 135.059 277.301 134.946 277.075C134.835 276.845 134.622 276.68 134.309 276.579Z" fill="#D284FF"/>
<path d="M135.011 240.657C135.349 241.676 135.398 242.569 135.16 243.338C134.922 244.107 134.418 244.636 133.649 244.924C133.334 245.042 133.03 245.079 132.737 245.036C132.443 244.988 132.182 244.864 131.953 244.665C131.767 245.314 131.356 245.757 130.721 245.995C130.352 246.133 129.989 246.146 129.631 246.035C129.272 245.919 128.952 245.686 128.672 245.335C128.395 244.982 128.186 244.543 128.046 244.017C127.801 243.012 127.821 242.123 128.106 241.349C128.391 240.576 128.899 240.053 129.63 239.779C130.195 239.567 130.731 239.516 131.236 239.624L131.69 239.73L132.665 243.227C132.8 243.786 133.084 243.984 133.519 243.822C133.846 243.699 134.041 243.389 134.105 242.892C134.171 242.389 134.094 241.808 133.873 241.15C133.457 239.84 132.818 238.948 131.956 238.473C131.098 237.996 130.092 237.974 128.938 238.406C128.203 238.682 127.62 239.115 127.188 239.707C126.759 240.293 126.506 240.993 126.429 241.807C126.355 242.615 126.461 243.466 126.747 244.359C127.19 245.728 127.844 246.656 128.711 247.142C129.579 247.633 130.613 247.654 131.813 247.204C132.136 247.083 132.463 246.916 132.796 246.704C133.13 246.496 133.392 246.299 133.582 246.114L134.154 246.991C133.977 247.233 133.706 247.475 133.34 247.717C132.98 247.962 132.6 248.159 132.2 248.309C131.15 248.702 130.186 248.833 129.308 248.702C128.435 248.572 127.674 248.18 127.025 247.524C126.376 246.868 125.86 245.971 125.478 244.834C125.126 243.755 125.014 242.714 125.143 241.71C125.273 240.7 125.637 239.823 126.235 239.077C126.835 238.326 127.62 237.769 128.589 237.406C129.558 237.042 130.471 236.931 131.326 237.071C132.179 237.208 132.924 237.586 133.561 238.208C134.197 238.829 134.68 239.645 135.011 240.657ZM129.488 243.476C129.633 243.992 129.814 244.357 130.03 244.57C130.248 244.777 130.491 244.831 130.761 244.73C130.941 244.662 131.077 244.519 131.166 244.302C131.259 244.083 131.3 243.804 131.287 243.467L130.533 240.75C130.406 240.762 130.281 240.791 130.158 240.837C129.727 240.999 129.458 241.293 129.35 241.719C129.245 242.14 129.291 242.726 129.488 243.476Z" fill="#D284FF"/>
<rect x="136.382" y="233.193" width="53.6215" height="10.514" transform="rotate(-20.5362 136.382 233.193)" fill="#D284FF"/>
<rect x="143.328" y="293.238" width="38.9018" height="11.5654" transform="rotate(12.701 143.328 293.238)" fill="#D284FF"/>
<rect x="144.434" y="274.88" width="37.8504" height="10.514" transform="rotate(17.7826 144.434 274.88)" fill="#D284FF"/>
</svg>
